<?xml version="1.0" encoding="UTF-8"?>
<svg id="Layer_1" xmlns="http://www.w3.org/2000/svg" version="1.1" viewBox="0 0 49.6 49.6">
  <!-- Generator: Adobe Illustrator 29.6.1, SVG Export Plug-In . SVG Version: 2.1.1 Build 9)  -->
  <defs>
    <style>
      .st0 {
        fill: #180057;
      }
    </style>
  </defs>
  <path class="st0" d="M45.6,20.5c1,0,1.8-.8,1.8-1.9s-.8-1.8-1.8-1.8-1.8.8-1.8,1.8.8,1.9,1.8,1.9Z"/>
  <path class="st0" d="M47.1,21.6h-3v11.1h3v-11.1Z"/>
  <path class="st0" d="M19.2,17.2h-3v15.5h3v-15.5Z"/>
  <path class="st0" d="M10.9,21.6v.6c-.9-.5-1.8-.8-2.9-.8-1.6,0-2.9.6-4,1.7-1.2,1.2-1.7,2.5-1.7,4.1s.6,2.9,1.7,4c1.1,1.1,2.5,1.7,4,1.7s2.1-.3,2.9-.8v.6h2.8v-11.1h-2.8ZM10,29.2c-.5.5-1.3.9-2.1.9s-1.5-.3-2.1-.9c-.5-.5-.8-1.3-.8-2.1s.3-1.6.8-2.1,1.3-.8,2.1-.8,1.6.3,2.1.8.8,1.2.8,2.1c0,.8-.3,1.6-.8,2.1Z"/>
  <path class="st0" d="M41.9,27.1v5.5h-2.8v-5.5c0-.8-.3-1.6-.8-2.1s-1.3-.8-2.1-.8-1.6.3-2.1.8-.8,1.2-.8,2.1v5.5h-2.8v-5.5c0-.8-.3-1.6-.9-2.1-.5-.5-1.3-.8-2.1-.8s-1.6.3-2.1.8-.9,1.3-.9,2.1v5.5h-2.8v-11.1h2.8v.6c.9-.5,1.8-.8,2.9-.8,1.6,0,3,.6,4.1,1.7l.3.3c0,0,.2-.2.3-.3,1.1-1.1,2.5-1.7,4-1.7s3,.6,4.1,1.7c1.1,1.2,1.7,2.5,1.7,4.1h0Z"/>
</svg>