<svg width="494" height="371" viewBox="0 0 494 371" fill="none" xmlns="http://www.w3.org/2000/svg">
<path d="M252.569 18.4178L266.277 94.1441L304.419 47.2619L308.784 41.8971L309.719 48.7496L315.439 90.703L364.432 69.6182L372.636 66.0873L368.227 73.8541L352.102 102.258L426.889 92.046L433.782 91.1046L429.735 96.763L396.576 143.125L471.858 152.168L482.549 153.453L472.733 157.882L399.131 191.094L465.03 215.183L473.895 218.423L464.786 220.895L414.906 234.436L438.958 268.779L442.95 274.48L436.064 273.469L375.842 264.613L381.876 329.319L382.613 337.219L376.834 331.783L336.083 293.454L324.245 333.417L323.11 337.251L319.746 335.089L284.583 312.478L259.484 355.534L257.379 359.143L254.633 355.995L211.548 306.634L170.81 355.934L165.498 362.362L165.498 354.023L165.496 287.461L107.632 311.039L98.2333 314.868L104.04 306.544L136.08 260.607L67.5354 285.815L59.8428 288.644L63.8911 281.518L89.9426 235.658L29.0003 235.659L18.9968 235.659L27.3493 230.155L68.1836 203.24L19.3603 176.562L10.5095 171.725L20.5644 170.938L89.6061 165.533L59.049 122.23L55.711 117.5L61.5 117.5L103.5 117.499L103.5 72.3738L103.5 67.33L107.932 69.7377L166.158 101.365L172.959 55.4656L173.887 49.2015L178.147 53.8867L210.764 89.7634L246.935 17.6084L250.966 9.56578L252.569 18.4178Z" fill="#180057" stroke="white" stroke-width="6"/>
<g filter="url(#filter0_d_2002_64)">
<path d="M159.994 199.88L160.059 199.925L145.768 202.404C139.919 203.418 135.016 199.721 134.049 194.148L130.681 174.726C129.715 169.154 133.088 164.022 138.936 163.008L153.448 160.491C155.268 160.175 156.446 161.392 156.742 163.103C157.077 165.034 156.34 166.355 154.327 166.875L139.706 169.41C137.664 169.764 136.754 171.4 137.089 173.331L140.562 193.36C140.897 195.291 142.581 196.477 144.346 196.171L158.913 193.645C160.844 193.31 161.911 194.546 162.207 196.256C162.542 198.187 161.925 199.545 159.994 199.88ZM194.17 173.947L195.806 183.382C196.763 188.9 193.134 194.19 187.119 195.233L180.609 196.362C174.594 197.405 169.396 193.646 168.439 188.128L166.803 178.693C165.855 173.23 169.806 167.828 175.324 166.871L182.166 165.685C187.904 164.689 193.223 168.484 194.17 173.947ZM179.16 190.304L186.499 189.031C188.651 188.658 189.889 186.625 189.574 184.804L187.823 174.707C187.488 172.775 185.656 171.388 183.725 171.723L175.945 173.072C173.903 173.426 172.756 175.33 173.09 177.261L174.841 187.359C175.157 189.18 176.953 190.687 179.16 190.304ZM239.334 164.751L242.472 182.849C242.779 184.614 241.461 185.866 239.695 186.172C237.985 186.469 236.213 185.753 235.906 183.987L232.701 165.503C232.462 164.124 231.812 163.327 230.543 163.547L229.053 163.806C228.005 163.987 227.556 164.349 226.944 165.081C226.596 165.368 226.049 166.145 225.492 166.867C225.173 167.32 224.789 167.728 224.469 168.181L227.464 185.451C227.771 187.217 226.398 188.478 224.687 188.775C222.977 189.071 221.205 188.356 220.898 186.59L217.693 168.106C217.463 166.782 216.639 165.958 215.535 166.15L214.873 166.265C214.376 166.351 213.772 166.797 213.179 167.638L209.343 172.396L212.07 188.121C212.376 189.887 211.059 191.138 209.348 191.435C207.583 191.741 205.865 191.016 205.559 189.25L201.378 165.138C201.043 163.207 202.389 162.121 204.1 161.824C205.865 161.518 207.499 162.087 207.834 164.018L208.092 165.508C208.622 164.961 210.384 162.667 210.823 162.249C211.536 161.444 212.938 160.348 213.82 160.195L214.703 160.042C217.959 159.478 220.148 160.632 221.922 162.996L223.355 161.099C224.586 159.351 226.235 158.042 227.835 157.765L229.877 157.411C235.174 156.492 238.463 159.73 239.334 164.751ZM261.123 176.034L264.544 175.441C266.309 175.134 267.559 176.111 267.865 177.877C268.181 179.698 267.489 180.954 265.558 181.289L252.591 183.538C250.826 183.844 249.641 182.913 249.325 181.092C249.019 179.326 249.867 177.986 251.577 177.689L254.777 177.134L251.821 160.085L248.621 160.64C246.855 160.946 245.661 159.959 245.345 158.138C245.029 156.318 245.821 154.987 247.587 154.681L257.133 153.025L261.123 176.034ZM256.438 145.416L256.792 147.457C257.051 148.947 256.057 150.427 254.567 150.685L252.139 151.106C250.594 151.374 249.216 150.306 248.957 148.816L248.603 146.775C248.345 145.285 249.274 143.76 250.819 143.492L253.247 143.071C254.736 142.812 256.18 143.926 256.438 145.416ZM297.287 155.667L300.263 172.827C300.569 174.593 299.251 175.844 297.541 176.141C295.831 176.437 294.224 175.693 293.918 173.927L290.789 155.885C290.53 154.395 288.857 153.264 287.367 153.523L283.946 154.116C282.677 154.336 281.695 154.904 280.992 155.765L277.322 160.493L280.068 176.329C280.374 178.095 279.167 179.327 277.457 179.624C275.691 179.93 273.974 179.205 273.668 177.439L269.486 153.327C269.151 151.396 270.443 150.319 272.153 150.023C273.863 149.726 275.497 150.295 275.832 152.226L276.1 153.771L277.806 151.486C278.966 149.978 280.88 148.566 283.032 148.193L286.012 147.676C291.585 146.71 296.359 150.315 297.287 155.667ZM319.702 182.471L328.806 180.893C331.013 180.51 332.12 179.352 331.708 176.979C331.373 175.048 330.134 174.126 328.368 174.432L315.512 176.662C312.698 177.15 310.638 176.086 310.255 173.879C310.035 172.61 310.213 171.67 310.674 170.396L312.356 165.672C309.355 164.43 306.778 161.694 306.127 157.942L305.486 154.245C304.53 148.728 308.49 143.38 314.008 142.423L330.34 139.591C332.271 139.256 333.391 140.142 333.688 141.852C334.022 143.784 333.285 145.105 331.354 145.44L330.196 145.641C331.387 146.287 332.735 148.156 333.079 150.142L333.605 153.177C334.572 158.75 330.832 164.059 324.873 165.092L318.141 166.26C318.196 166.25 317.863 167.274 317.529 168.298C317.384 168.778 317.24 169.258 317.087 169.682C316.988 170.097 320.217 169.708 326.838 168.559C333.239 167.45 337.173 170.803 338.054 175.879C339.049 181.617 335.516 186.152 329.612 187.175L321.059 188.658C315.1 189.692 310.932 187.289 310.081 182.378C309.784 180.667 311.018 179.26 312.783 178.954C314.494 178.657 316.063 179.181 316.397 181.112C316.617 182.381 317.716 182.816 319.702 182.471ZM316.916 160.504L324.365 159.213C326.406 158.859 327.643 156.484 327.317 154.608L326.562 150.249C326.15 147.877 324.431 146.811 322.224 147.194L314.664 148.505C312.513 148.878 311.439 150.883 311.774 152.814L312.53 157.173C312.855 159.049 314.764 160.878 316.916 160.504ZM221.369 260.176L234.888 257.831C236.488 257.554 237.381 256.149 237.113 254.604C236.845 253.059 235.579 252.312 233.839 252.443L225.837 253.49C220.29 254.281 215.852 251.3 214.99 246.334C214.206 241.809 217.101 236.874 222.508 235.936L235.309 233.717C237.13 233.401 238.418 234.598 238.724 236.364C239.021 238.075 238.267 239.626 236.501 239.932L223.479 242.191C221.99 242.449 221.106 243.909 221.345 245.289C221.623 246.889 223.247 247.403 224.82 247.301L232.914 246.124C238.461 245.333 242.748 249.08 243.485 253.328C244.298 258.018 241.412 263.009 235.894 263.965L222.431 266.3C220.611 266.616 219.323 265.418 219.026 263.708C218.711 261.887 219.548 260.491 221.369 260.176ZM275.803 236.925L277.439 246.36C278.396 251.878 274.767 257.168 268.752 258.211L262.242 259.34C256.227 260.383 251.029 256.624 250.072 251.106L248.436 241.671C247.488 236.208 251.439 230.806 256.957 229.849L263.799 228.662C269.537 227.667 274.856 231.462 275.803 236.925ZM260.793 253.282L268.132 252.009C270.284 251.636 271.522 249.603 271.207 247.782L269.456 237.685C269.121 235.753 267.289 234.366 265.358 234.701L257.578 236.05C255.536 236.404 254.389 238.308 254.723 240.239L256.474 250.337C256.79 252.157 258.586 253.665 260.793 253.282ZM310.989 230.823L312.625 240.258C313.582 245.776 309.952 251.066 303.938 252.109L297.427 253.238C291.413 254.281 286.214 250.522 285.258 245.004L283.621 235.569C282.674 230.107 286.625 224.704 292.143 223.747L298.985 222.561C304.723 221.566 310.042 225.361 310.989 230.823ZM295.979 247.18L303.317 245.908C305.469 245.535 306.708 243.501 306.392 241.68L304.641 231.583C304.306 229.652 302.474 228.264 300.543 228.599L292.763 229.948C290.722 230.302 289.574 232.206 289.909 234.138L291.66 244.235C291.976 246.056 293.772 247.563 295.979 247.18ZM345.997 224.354L348.973 241.514C349.279 243.28 347.962 244.531 346.251 244.828C344.541 245.125 342.934 244.38 342.628 242.615L339.499 224.572C339.241 223.082 337.567 221.951 336.077 222.21L332.656 222.803C331.387 223.023 330.406 223.591 329.702 224.452L326.032 229.181L328.779 245.016C329.085 246.782 327.878 248.014 326.167 248.311C324.401 248.617 322.684 247.892 322.378 246.126L318.197 222.014C317.862 220.083 319.153 219.006 320.863 218.71C322.574 218.413 324.207 218.983 324.542 220.914L324.81 222.459L326.517 220.173C327.676 218.665 329.591 217.253 331.743 216.88L334.722 216.363C340.295 215.397 345.069 219.002 345.997 224.354Z" fill="#00D67A"/>
</g>
<defs>
<filter id="filter0_d_2002_64" x="128.93" y="124.493" width="227.46" height="154.58" filterUnits="userSpaceOnUse" color-interpolation-filters="sRGB">
<feFlood flood-opacity="0" result="BackgroundImageFix"/>
<feColorMatrix in="SourceAlpha" type="matrix" values="0 0 0 0 0 0 0 0 0 0 0 0 0 0 0 0 0 0 127 0" result="hardAlpha"/>
<feOffset dx="3" dy="-3"/>
<feGaussianBlur stdDeviation="1"/>
<feComposite in2="hardAlpha" operator="out"/>
<feColorMatrix type="matrix" values="0 0 0 0 0 0 0 0 0 0.839216 0 0 0 0 0.478431 0 0 0 0.8 0"/>
<feBlend mode="normal" in2="BackgroundImageFix" result="effect1_dropShadow_2002_64"/>
<feBlend mode="normal" in="SourceGraphic" in2="effect1_dropShadow_2002_64" result="shape"/>
</filter>
</defs>
</svg>
