<svg width="423" height="124" viewBox="0 0 423 124" fill="none" xmlns="http://www.w3.org/2000/svg">
<g filter="url(#filter0_d_2006_113)">
<path d="M67.3855 58.28L67.4415 58.336H52.9375C47.0015 58.336 42.8015 53.856 42.8015 48.2V28.488C42.8015 22.832 47.0015 18.352 52.9375 18.352L67.6655 18.352C69.5135 18.352 70.4655 19.752 70.4655 21.488C70.4655 23.448 69.5135 24.624 67.4415 24.792L52.6015 24.792C50.5295 24.792 49.3535 26.248 49.3535 28.208V48.536C49.3535 50.496 50.8095 51.952 52.6015 51.952H67.3855C69.3455 51.952 70.1855 53.352 70.1855 55.088C70.1855 57.048 69.3455 58.28 67.3855 58.28ZM105.49 38.568V48.144C105.49 53.744 101.01 58.336 94.906 58.336H88.298C82.194 58.336 77.714 53.744 77.714 48.144V38.568C77.714 33.024 82.53 28.376 88.13 28.376H95.074C100.898 28.376 105.49 33.024 105.49 38.568ZM87.906 52.12H95.354C97.538 52.12 99.106 50.328 99.106 48.48V38.232C99.106 36.272 97.538 34.592 95.578 34.592H87.682C85.61 34.592 84.154 36.272 84.154 38.232V48.48C84.154 50.328 85.666 52.12 87.906 52.12ZM151.561 37.224V55.592C151.561 57.384 150.049 58.392 148.257 58.392C146.521 58.392 144.897 57.384 144.897 55.592V36.832C144.897 35.432 144.393 34.536 143.105 34.536H141.593C140.529 34.536 140.025 34.816 139.297 35.432C138.905 35.656 138.233 36.328 137.561 36.944C137.169 37.336 136.721 37.672 136.329 38.064V55.592C136.329 57.384 134.761 58.392 133.025 58.392C131.289 58.392 129.665 57.384 129.665 55.592V36.832C129.665 35.488 128.993 34.536 127.873 34.536H127.201C126.697 34.536 126.025 34.872 125.297 35.6L120.705 39.632V55.592C120.705 57.384 119.193 58.392 117.457 58.392C115.665 58.392 114.097 57.384 114.097 55.592V31.12C114.097 29.16 115.609 28.32 117.345 28.32C119.137 28.32 120.649 29.16 120.649 31.12V32.632C121.265 32.184 123.393 30.224 123.897 29.888C124.737 29.216 126.305 28.376 127.201 28.376H128.097C131.401 28.376 133.361 29.888 134.705 32.52L136.441 30.896C137.953 29.384 139.801 28.376 141.425 28.376H143.497C148.873 28.376 151.561 32.128 151.561 37.224ZM171.101 52.064H174.573C176.365 52.064 177.429 53.24 177.429 55.032C177.429 56.88 176.533 58 174.573 58H161.413C159.621 58 158.613 56.88 158.613 55.032C158.613 53.24 159.677 52.064 161.413 52.064H164.661V34.76H161.413C159.621 34.76 158.613 33.584 158.613 31.736C158.613 29.888 159.621 28.712 161.413 28.712H171.101V52.064ZM171.717 21.096V23.168C171.717 24.68 170.485 25.968 168.973 25.968H166.509C164.941 25.968 163.765 24.68 163.765 23.168V21.096C163.765 19.584 164.941 18.24 166.509 18.24H168.973C170.485 18.24 171.717 19.584 171.717 21.096ZM210.214 38.176V55.592C210.214 57.384 208.702 58.392 206.966 58.392C205.23 58.392 203.774 57.384 203.774 55.592V37.28C203.774 35.768 202.318 34.368 200.806 34.368H197.334C196.046 34.368 194.982 34.76 194.142 35.488L189.718 39.52V55.592C189.718 57.384 188.318 58.392 186.582 58.392C184.79 58.392 183.222 57.384 183.222 55.592V31.12C183.222 29.16 184.678 28.32 186.414 28.32C188.15 28.32 189.662 29.16 189.662 31.12V32.688L191.734 30.728C193.134 29.44 195.262 28.376 197.446 28.376H200.47C206.126 28.376 210.214 32.744 210.214 38.176ZM227.72 68.416H236.96C239.2 68.416 240.488 67.464 240.488 65.056C240.488 63.096 239.424 61.976 237.632 61.976H224.584C221.728 61.976 219.88 60.576 219.88 58.336C219.88 57.048 220.216 56.152 220.888 54.976L223.352 50.608C220.608 48.872 218.536 45.736 218.536 41.928V38.176C218.536 32.576 223.352 27.984 228.952 27.984H245.528C247.488 27.984 248.44 29.048 248.44 30.784C248.44 32.744 247.488 33.92 245.528 33.92H244.352C245.416 34.76 246.424 36.832 246.424 38.848V41.928C246.424 47.584 241.832 52.176 235.784 52.176H228.952C229.008 52.176 228.504 53.128 228 54.08C227.776 54.528 227.552 54.976 227.328 55.368C227.16 55.76 230.408 55.928 237.128 55.928C243.624 55.928 246.928 59.904 246.928 65.056C246.928 70.88 242.672 74.744 236.68 74.744H228C221.952 74.744 218.256 71.664 218.256 66.68C218.256 64.944 219.712 63.768 221.504 63.768C223.24 63.768 224.696 64.552 224.696 66.512C224.696 67.8 225.704 68.416 227.72 68.416ZM228.728 46.296H236.288C238.36 46.296 239.984 44.168 239.984 42.264V37.84C239.984 35.432 238.472 34.088 236.232 34.088H228.56C226.376 34.088 224.976 35.88 224.976 37.84V42.264C224.976 44.168 226.544 46.296 228.728 46.296ZM278.501 52.176H292.221C293.845 52.176 294.965 50.944 294.965 49.376C294.965 47.808 293.845 46.856 292.109 46.688L284.045 46.352C278.445 46.184 274.581 42.488 274.581 37.448C274.581 32.856 278.277 28.488 283.765 28.488H296.757C298.605 28.488 299.669 29.888 299.669 31.68C299.669 33.416 298.661 34.816 296.869 34.816H283.653C282.141 34.816 281.021 36.104 281.021 37.504C281.021 39.128 282.533 39.912 284.101 40.08L292.277 40.304C297.877 40.472 301.461 44.896 301.461 49.208C301.461 53.968 297.765 58.392 292.165 58.392H278.501C276.653 58.392 275.589 56.992 275.589 55.256C275.589 53.408 276.653 52.176 278.501 52.176ZM336.107 38.568V48.144C336.107 53.744 331.627 58.336 325.523 58.336H318.915C312.811 58.336 308.331 53.744 308.331 48.144V38.568C308.331 33.024 313.147 28.376 318.747 28.376L325.691 28.376C331.515 28.376 336.107 33.024 336.107 38.568ZM318.523 52.12H325.971C328.155 52.12 329.723 50.328 329.723 48.48V38.232C329.723 36.272 328.155 34.592 326.195 34.592H318.299C316.227 34.592 314.771 36.272 314.771 38.232V48.48C314.771 50.328 316.283 52.12 318.523 52.12ZM371.818 38.568V48.144C371.818 53.744 367.338 58.336 361.234 58.336H354.626C348.522 58.336 344.042 53.744 344.042 48.144V38.568C344.042 33.024 348.858 28.376 354.458 28.376H361.402C367.226 28.376 371.818 33.024 371.818 38.568ZM354.234 52.12H361.682C363.866 52.12 365.434 50.328 365.434 48.48V38.232C365.434 36.272 363.866 34.592 361.906 34.592H354.01C351.938 34.592 350.482 36.272 350.482 38.232V48.48C350.482 50.328 351.994 52.12 354.234 52.12ZM407.417 38.176V55.592C407.417 57.384 405.905 58.392 404.169 58.392C402.433 58.392 400.977 57.384 400.977 55.592V37.28C400.977 35.768 399.521 34.368 398.009 34.368H394.537C393.249 34.368 392.185 34.76 391.345 35.488L386.921 39.52V55.592C386.921 57.384 385.521 58.392 383.785 58.392C381.993 58.392 380.425 57.384 380.425 55.592V31.12C380.425 29.16 381.881 28.32 383.617 28.32C385.353 28.32 386.865 29.16 386.865 31.12V32.688L388.937 30.728C390.337 29.44 392.465 28.376 394.649 28.376H397.673C403.329 28.376 407.417 32.744 407.417 38.176Z" fill="#180057"/>
</g>
<path d="M42.5 112.5H411" stroke="#180057" stroke-width="23" stroke-linecap="round"/>
<path d="M42.5 112.5H123" stroke="#00D67A" stroke-opacity="0.8" stroke-width="13" stroke-dasharray="4 2"/>
<defs>
<filter id="filter0_d_2006_113" x="42.8015" y="13.24" width="369.615" height="61.504" filterUnits="userSpaceOnUse" color-interpolation-filters="sRGB">
<feFlood flood-opacity="0" result="BackgroundImageFix"/>
<feColorMatrix in="SourceAlpha" type="matrix" values="0 0 0 0 0 0 0 0 0 0 0 0 0 0 0 0 0 0 127 0" result="hardAlpha"/>
<feOffset dx="3" dy="-3"/>
<feGaussianBlur stdDeviation="1"/>
<feComposite in2="hardAlpha" operator="out"/>
<feColorMatrix type="matrix" values="0 0 0 0 0.0941176 0 0 0 0 0 0 0 0 0 0.341176 0 0 0 1 0"/>
<feBlend mode="normal" in2="BackgroundImageFix" result="effect1_dropShadow_2006_113"/>
<feBlend mode="normal" in="SourceGraphic" in2="effect1_dropShadow_2006_113" result="shape"/>
</filter>
</defs>
</svg>
