<?xml version="1.0" encoding="UTF-8"?>
<svg id="Layer_1" xmlns="http://www.w3.org/2000/svg" version="1.1" viewBox="0 0 49.6 49.6">
  <!-- Generator: Adobe Illustrator 29.6.1, SVG Export Plug-In . SVG Version: 2.1.1 Build 9)  -->
  <defs>
    <style>
      .st0 {
        fill: #180057;
      }
    </style>
  </defs>
  <path class="st0" d="M12.6,24.8c0,1.8-1.5,3.3-3.3,3.3s-3.3-1.5-3.3-3.3,1.5-3.3,3.3-3.3,3.3,1.5,3.3,3.3ZM11.7,24.8c0-1.3-1.1-2.4-2.4-2.4s-2.4,1.1-2.4,2.4,1.1,2.4,2.4,2.4,2.4-1.1,2.4-2.4Z"/>
  <polygon class="st0" points="26.7 21.6 26.7 27.9 25.8 27.9 25.8 23.5 23.6 25.3 21.5 23.5 21.5 27.9 20.5 27.9 20.5 21.6 23.6 24.1 26.7 21.6"/>
  <path class="st0" d="M16.6,21.7c.7,0,1.4.6,1.6,1.2.3,1.2-.5,2.2-1.7,2.3l2.1,2.6h-1.1l-2.1-2.6v2.6h-.9v-6.2c.7,0,1.5,0,2.2,0h0ZM15.3,24.4h1.2s.2,0,.2,0c.6-.2.7-1,.2-1.5-.1-.1-.4-.2-.5-.2h-1.2v1.8h0Z"/>
  <path class="st0" d="M28.2,27.9l3-6.3,2.9,6.3h-1l-.8-1.8h-2.3l-.8,1.8h-1ZM31.9,25.2l-.8-1.6-.7,1.6h1.5Z"/>
  <path class="st0" d="M38.8,21.7v.9h-1.9s-.3.1-.4.1c-.5.3-.6,1-.2,1.4.4.4.9.2,1.3.3,1.6.4,1.9,2.5.4,3.3-.1,0-.5.2-.6.2h-2.1v-.9h1.9c.7,0,1.1-1.1.5-1.6-.4-.3-1-.1-1.5-.3-1.4-.5-1.5-2.5-.2-3.2.2,0,.5-.2.7-.2h2,0Z"/>
  <polygon class="st0" points="4.6 24.4 4.6 25.2 2.1 25.2 2.1 25.3 2.1 27.9 1.2 27.9 1.2 24.4 4.6 24.4"/>
  <rect class="st0" x="1.2" y="21.7" width="3.3" height=".9"/>
  <circle class="st0" cx="42.8" cy="22.4" r=".8"/>
  <circle class="st0" cx="45.2" cy="22.4" r=".8"/>
  <circle class="st0" cx="42.8" cy="24.8" r=".8"/>
  <circle class="st0" cx="45.2" cy="24.8" r=".8"/>
  <circle class="st0" cx="47.6" cy="22.4" r=".8"/>
  <circle class="st0" cx="42.8" cy="27.2" r=".8"/>
</svg>