<?xml version="1.0" encoding="UTF-8"?>
<svg id="Layer_1" data-name="Layer 1" xmlns="http://www.w3.org/2000/svg" viewBox="0 0 49.61 49.61">
  <defs>
    <style>
      .cls-1 {
        fill: #180057;
      }
    </style>
  </defs>
  <path class="cls-1" d="M44.37,19.15c-.09-4.3-.25-7.99-3.64-11.06-2.85-2.58-6.27-2.73-9.93-2.83-3.96-.1-7.99-.1-11.95,0-3.5.09-6.81.22-9.63,2.57-2.64,2.2-3.56,4.92-3.83,8.27-.32,4.12-.22,8.46-.16,12.61.07,4.75-.17,9.32,3.64,12.78,2.87,2.6,6.2,2.77,9.89,2.87,3.97.1,8.02.1,11.99,0,1.16-.03,2.33-.03,3.49-.16,5.54-.61,9.18-4.04,9.92-9.59.17-1.29.17-2.6.2-3.9.09-3.83.08-7.72,0-11.55ZM40.82,31.3c-.04,1.39-.05,2.74-.4,4.1-.76,2.96-2.88,4.71-5.86,5.2-1.44.24-3.03.21-4.49.24-3.3.07-6.62.06-9.92,0-2.99-.05-6.49.19-8.87-1.93-2.67-2.38-2.45-5.89-2.51-9.17-.06-3.41-.08-6.88,0-10.28.02-1.1.03-2.19.12-3.29.27-3.28,1.64-5.84,4.92-6.86,1.44-.45,2.89-.47,4.39-.52,4.32-.14,8.91-.13,13.23,0,2.53.08,5.06.18,7.02,1.99,2.17,2.02,2.28,4.65,2.37,7.44.13,4.28.13,8.79,0,13.07Z"/>
  <path class="cls-1" d="M15.84,20.32c-4.38,8.74,5.07,17.96,13.71,13.35,5.09-2.72,6.88-9.06,3.88-14.04-4.11-6.82-14.03-6.42-17.59.69ZM29.11,29.76c-3.61,3.16-9.34,1.35-10.59-3.22-.5-1.83-.14-4.14,1.02-5.67,2.16-2.83,6.25-3.46,9.14-1.35,3.38,2.47,3.57,7.48.43,10.24Z"/>
  <path class="cls-1" d="M35,12c-2.98.34-2.56,4.95.51,4.69,3.09-.26,2.67-5.05-.51-4.69Z"/>
</svg>