<?xml version="1.0" encoding="UTF-8"?>
<svg id="Layer_1" xmlns="http://www.w3.org/2000/svg" version="1.1" viewBox="0 0 49.6 49.6">
  <!-- Generator: Adobe Illustrator 29.6.1, SVG Export Plug-In . SVG Version: 2.1.1 Build 9)  -->
  <defs>
    <style>
      .st0 {
        fill: #180057;
      }
    </style>
  </defs>
  <path class="st0" d="M18.2,44.2c-.3,0-.2-.6-.2-.8.2-1.3,1.3-3.2,1.6-4.5.1-.9-1.2-.6-1.8-.6-.6,0-1.5,0-2,.2-2.1.2-4.2,2.3-6.1,3.1l-4.1-2.4v-.6c0,0,19.3-11,19.3-11,1.5.7,3.2,1.5,4.4,2.6l-7.5,4.5c2.4.4,4.8-.2,7.1-.3,1,0,2,0,3,0,2.4-.1,3.6-.8,5.9.4.3.1,3.7,2,3.6,2.2-2.5.9-5.3.4-8,.5-1.2,0-2.5.3-3.7.4-1.1,0-2.2,0-3.3,0l-2,5.8-.4.5h-5.8,0Z"/>
  <path class="st0" d="M44.4,15.9c.4.6,0,.9-.2,1.3-.7,2.4-1.6,4.8-2.3,7.2h.5c0,0,6.6-3.9,6.6-3.9h.3c.3.5,0,2.9.1,3.5l-.7.6-9.2,5.3c-.2.1-.5,0-.7,0-.2,0-2.1-1.2-2.3-1.4-.1-.1-.3-.2-.3-.4l2.7-8.8c-.2-.2-2.2,1.2-2.6,1.4-.7.4-1.7.7-2.2,1.3-1,.2-3.8,2.5-4.6,2.4-.7-.2-1.3-.7-1.9-1.1-.2-.1-.9-.3-1-.6,0-.3,1.3-1.1,1.7-1.3,4.1-2.5,8.4-4.7,12.6-7.1,1-.3,2.5,1.2,3.5,1.6h0Z"/>
  <path class="st0" d="M10.4,22.1v.4c-.8.2-3,2.1-3.7,2s-1.3-.8-1.9-1.1c-1.5-.8-3.1-1.6-4.6-2.6l-.2-.6v-7.3c0,0,.2-.3.2-.3l12.8-7.3c1.3.7,2.6,1.4,3.9,2.1.1,0,.7.5.6.6L2,17.1s8.4,5,8.4,5Z"/>
  <path class="st0" d="M36.2,7.1v.5l-14.2,8.2h-.5s-3.2-1.7-3.2-1.7l.6-.6,13.8-7.9c.2,0,.4-.1.7,0,.7.2,2,1.4,2.8,1.6h0Z"/>
</svg>