<?xml version="1.0" encoding="UTF-8"?>
<svg id="Layer_1" data-name="Layer 1" xmlns="http://www.w3.org/2000/svg" viewBox="0 0 49.61 49.61">
  <defs>
    <style>
      .cls-1 {
        fill: #180057;
        fill-rule: evenodd;
      }
    </style>
  </defs>
  <path class="cls-1" d="M41.26,3.65H8.35c-2.6,0-4.7,2.1-4.7,4.7v32.91c0,2.6,2.1,4.7,4.7,4.7h32.91c2.6,0,4.7-2.1,4.7-4.7V8.35c0-2.6-2.1-4.7-4.7-4.7ZM16.44,40.08h-6.31v-20.37h6.31v20.37ZM13.26,17.04c-2.06,0-3.73-1.68-3.73-3.76s1.67-3.76,3.73-3.76,3.73,1.68,3.73,3.76-1.67,3.76-3.73,3.76ZM40.08,40.08h-6.28v-10.69c0-2.93-1.11-4.57-3.43-4.57-2.52,0-3.84,1.71-3.84,4.57v10.69h-6.05v-20.37h6.05v2.74s1.82-3.37,6.14-3.37,7.41,2.64,7.41,8.1v12.9Z"/>
</svg>