<?xml version="1.0" encoding="UTF-8"?>
<svg id="SHAPES" xmlns="http://www.w3.org/2000/svg" viewBox="0 0 873.15 1585.27">
  <defs>
    <style>
      .cls-1 {
        fill: #4e378a;
      }
    </style>
  </defs>
  <path class="cls-1" d="M873.15,436.22c0-67.9-15.46-124.97-41.28-173.33C762.6,108.03,612.2,0,436.57,0S109.62,108.03,40.35,262.88C14.53,311.25,0,378.11,0,436.22v1149.06h873.15V436.22ZM625.99,586.68c-42.16,59.23-111.2,97.99-189.43,97.99-1.35,0-2.66-.18-4.01-.2-122.03-2.09-220.9-98.1-227.81-218.89-.26-4.46-.67-8.89-.67-13.42,0-80.21,40.62-150.93,102.39-192.72,37.13-25.12,81.91-39.79,130.11-39.79,128.42,0,232.52,104.1,232.52,232.51,0,50.18-16.07,96.53-43.1,134.52Z"/>
</svg>