<?xml version="1.0" encoding="UTF-8"?>
<svg id="Layer_1" xmlns="http://www.w3.org/2000/svg" version="1.1" viewBox="0 0 49.6 49.6">
  <!-- Generator: Adobe Illustrator 29.6.1, SVG Export Plug-In . SVG Version: 2.1.1 Build 9)  -->
  <defs>
    <style>
      .st0 {
        fill: #180057;
      }
    </style>
  </defs>
  <path class="st0" d="M7.2,19.1c2.1.1,3.8,1.8,3.9,3.9,0,1.8,0,3.7,0,5.5-.1,1-1,1.9-2,1.9-1.2,0-2.4,0-3.6,0-2.1,0-3.8-1.7-3.9-3.8v-5.6c0-1,1-1.9,2-2h3.7ZM3.5,20.5c-.4,0-.7.4-.7.8v5.3c0,1.3,1.2,2.5,2.5,2.6,1.2,0,2.5,0,3.7,0,.4,0,.7-.4.7-.7,0-1.9,0-3.8,0-5.6-.2-1.2-1.2-2.2-2.5-2.3,0,0-3.8,0-3.8,0Z"/>
  <path class="st0" d="M35.2,26.1s0,0,0,0c.3-.7.4-1.6.8-2.3,0,0,0,0,0-.1,0,0,.5,0,.6,0,0,0,.2,0,.2,0,0,0,.1.4.2.5.2.6.4,1.3.6,1.9,0,0,0,0,0,0,.3-.7.4-1.5.7-2.2,0,0,0-.1.1-.2,0,0,.6,0,.7,0,0,0,.1.1.1.2l-1.2,3.8c0,.1-.1.1-.2.2s-.4,0-.5,0c-.2,0-.2,0-.3-.2-.3-.7-.4-1.5-.7-2.1h0s-.8,2.2-.8,2.2c0,0,0,0,0,0,0,0-.5,0-.6,0,0,0-.2,0-.2-.1l-1.2-3.8c0,0,0-.2,0-.2.1,0,.7,0,.8,0,.1,0,.2.2.2.4.2.7.5,1.4.7,2.1h0Z"/>
  <path class="st0" d="M14,27c-.1-.1-.4-.4-.2-.6,0,0,.4-.3.5-.4.3-.2.4.1.6.3.4.4.9.7,1.5.6.5,0,.8-.3.7-.8,0-.7-1.2-.8-1.7-1-.8-.3-1.4-.8-1.4-1.7,0-1.9,2.6-2,3.8-1,.2.1.5.4.3.6,0,0-.5.4-.5.4-.2,0-.2,0-.4-.2-.5-.5-1-.7-1.7-.5-.6.2-.6.9-.1,1.2s1.2.4,1.8.7c1.3.8,1.2,2.5-.2,3.1-1.1.4-2.2,0-3-.7h0Z"/>
  <path class="st0" d="M42.7,27.6l-.4.2c-1.9.7-3.3-1.3-2.6-3,.5-1.2,1.9-1.6,3-.9,0,0,0-.1,0-.2,0,0,.5,0,.7,0,0,0,.2,0,.2.1v3.9c0,0,0,.1-.2.1-.1,0-.5,0-.6,0,0,0-.1-.1-.1-.2ZM41.3,24.5c-1.2.2-1.2,2.3,0,2.6,1.7.3,1.8-2.8,0-2.6Z"/>
  <path class="st0" d="M25.9,23.9c0,0,0-.2.1-.2.1,0,.6,0,.7,0,0,0,.1,0,.1.1v3.9s0,0,0,0c-.1,0-.5,0-.6,0,0,0-.2,0-.2-.1,0,0,0-.1,0-.1,0,0-.2.1-.2.1-1.1.6-2.5-.1-2.8-1.3-.5-1.8.9-3.4,2.7-2.8l.4.2h0ZM24.6,24.5c-1.2.1-1.2,2.3,0,2.6,1.7.3,1.8-2.8,0-2.6Z"/>
  <path class="st0" d="M30.2,26.1c0,.4.3.8.7.9.4.1.9,0,1.3-.3.2-.1.2-.3.5-.2,0,0,.4.3.4.3.1.2,0,.3,0,.4-.7.8-1.9,1-2.8.4-1.5-.9-1.3-3.5.4-4,1.2-.4,2.4.3,2.6,1.5,0,.2,0,.6,0,.8,0,0-.1.2-.2.2,0,0-2.9,0-2.8,0ZM32.2,25.2c-.2-.6-.5-.8-1.1-.7-.4,0-.8.4-.9.7h2,0Z"/>
  <path class="st0" d="M46.1,26.5h0s1.1-2.8,1.1-2.8c0,0,0,0,0,0,0,0,.5,0,.6,0,.2,0,.3.1.2.3-.6,1.4-1,2.8-1.6,4.2-.3.7-.6,1-1.4,1-.2,0-.5,0-.5-.2,0,0,0-.4,0-.5,0-.2.4-.2.5-.2.3,0,.4-.2.5-.5l-1.5-4c0-.1.1-.2.2-.2.1,0,.5,0,.6,0,0,0,0,0,0,0l1,2.8Z"/>
  <path class="st0" d="M21.5,25s0,0,0-.1c-.2-.2-.4-.4-.7-.4-1.6-.1-1.6,2.8.1,2.6.2,0,.4-.1.5-.2.1-.1.2-.3.4-.2,0,0,.3.2.4.2.2.2.3.2,0,.5-.4.5-1.2.8-1.9.7-1.4-.2-2.1-1.7-1.7-3,.5-1.5,2.4-2,3.5-.8.1.1.2.3,0,.4,0,0-.4.4-.5.4,0,0-.2,0-.2,0Z"/>
  <path class="st0" d="M27.8,21.8c.1,0,.5,0,.6,0,.1,0,.2.1.2.2v5.5c0,0,0,.2-.1.2,0,0-.5,0-.6,0-.1,0-.2,0-.3-.2v-5.7c0,0,.1-.1.2-.1Z"/>
  <path class="st0" d="M4.8,21.7c.6,0,1.2,0,1.8,0,.9,0,.9,1.2,0,1.3-.4,0-1.3-.2-1.3.5,0,.6,0,1.2,0,1.8,0,.7-1.2.8-1.3,0v-2.8c0-.4.3-.7.7-.7Z"/>
  <path class="st0" d="M7.8,23.7c.3,0,.7.2.7.6,0,.9,0,1.9,0,2.8,0,.4-.3.7-.7.8-.6,0-1.4,0-2,0-.4,0-.6-.5-.5-.8.3-.9,1.9.1,1.9-.9,0-.6,0-1.2,0-1.8,0-.3.3-.5.6-.5h0Z"/>
</svg>