<?xml version="1.0" encoding="UTF-8"?>
<svg id="Layer_1" xmlns="http://www.w3.org/2000/svg" version="1.1" viewBox="0 0 49.6 49.6">
  <!-- Generator: Adobe Illustrator 29.6.1, SVG Export Plug-In . SVG Version: 2.1.1 Build 9)  -->
  <defs>
    <style>
      .st0 {
        fill: #180057;
      }
    </style>
  </defs>
  <path class="st0" d="M18.7,24s0,0,0,0c-.2,0-.6,0-.9,0,0-.3,0-.7-.2-.9-.4-.4-1.8-.4-2,.3-.2,1,1.1,1,1.7,1.1,1.1.3,1.8.8,1.6,2-.3,1.8-3.5,2.1-4.3.5,0-.1-.2-.5-.2-.6v-.5h1c-.1.9.5,1.3,1.5,1.2.6,0,1.4-.7.9-1.3-.3-.4-1-.4-1.5-.5-1.2-.3-1.9-.6-1.7-2,.2-1.7,3.3-2,4-.6,0,0,.2.4.2.5,0,.1,0,.5,0,.6h0Z"/>
  <path class="st0" d="M35.9,23.4s0,0,.2,0c0,0,.6-.7.7-.9.4-.5.9-1,1.3-1.6.4-.1.8,0,1.3-.1h0c0,.1-2.4,3-2.4,3l2.5,2.8c0,0,0,0,0,0-.3,0-.9,0-1.2,0l-2.1-2.3s0,0,0,0v2.4h-.9c0,0-.1,0-.1,0v-5.8c0-.1.5,0,.6,0s.4-.1.4,0v2.3h0Z"/>
  <path class="st0" d="M28.6,21.4v.9l-2.7.2v1.5c.6,0,1.2,0,1.9,0,0,0,.6-.1.6,0v.8c0,.1-.4,0-.5,0-.5,0-1,0-1.4,0-.2,0-.4,0-.5,0v1.5h2.8c0-.1,0,.8,0,.8l-3.8.2s0-.2,0-.3c0-1.8,0-3.6,0-5.4v-.2c0,0,3.8-.2,3.8-.2h0Z"/>
  <path class="st0" d="M48.4,20.3v.9l-2.7.2v1.5c0,0,.3,0,.4,0,.3,0,.6,0,.9,0,.4,0,.8,0,1.3,0v.9l-2.5.2v1.5s0,0,.1,0c.2,0,.6,0,.8,0,.6,0,1.2,0,1.8,0v1l-3.8.2v-5.9s3.7-.2,3.7-.2Z"/>
  <path class="st0" d="M33.9,24.8c0,1.1-.5,2.1-1.5,2.4-1.2.3-2.6,0-3-1.3-.2-.6-.2-2.5,0-3.1.6-2.2,4.3-2.4,4.5.2,0,.5-.2.3-.5.3,0,0-.4.1-.5,0,0,0,0-.4,0-.5-.3-1.3-2.3-.9-2.5.4,0,.5,0,1.6,0,2.1.1,1.4,2.2,1.4,2.5.1,0-.1,0-.5,0-.6h1s0,0,0,0Z"/>
  <path class="st0" d="M19.8,27.8v-5.9c0-.1.6,0,.7,0,.7,0,1.8-.2,2.4,0,1.7.4,1.6,2.9,0,3.5-.7.3-1.4.1-2.1.3,0,.3,0,2,0,2.2,0,0-.9,0-1,0h0ZM20.8,24.6h1.4c1-.2,1.1-1.6.3-1.9-.3-.1-.5,0-.8,0-.3,0-.7,0-.9,0v1.8h0Z"/>
  <path class="st0" d="M11.6,20.8h0c0,0-1.5-1.4-1.5-1.4-2.8.2-5.6.3-8.4.5-.2,0-.3,0-.5,0h0v9c0,0,1.1,1.1,1.3,1.2,0,0,0,0,0,0,0,0,0,0,0,0,0,0,.3,0,.4,0,2.1,0,4.2-.3,6.3-.4.8,0,1.5,0,2.3-.1v-.4s0-8.5,0-8.5h0Z"/>
  <path class="st0" d="M41.1,20.7v4.9s0,0,0,0c.9,0,1.8-.1,2.7-.1v.9l-3.8.2v-5.8s0,0,0,0c.2,0,.7,0,.9,0Z"/>
</svg>