<?xml version="1.0" encoding="UTF-8"?>
<svg id="SHAPES" xmlns="http://www.w3.org/2000/svg" viewBox="0 0 3000 714.29">
  <defs>
    <style>
      .cls-1 {
        fill: none;
      }

      .cls-2 {
        fill: #33de95;
      }

      .cls-3 {
        fill: #00d67a;
      }

      .cls-4 {
        fill: #99bed0;
      }

      .cls-5 {
        fill: #0f6;
      }
    </style>
  </defs>
  <path class="cls-1" d="M2447.26,319.54h-87.01c-5.08,0-9.98,1.33-14.41,3.55-1.69,3.54-2.65,7.31-2.65,11.07v32.83h135.27v-16.88c0-15.29-15-30.57-31.2-30.57Z"/>
  <path class="cls-5" d="M997.45,307.56c-12.55,0-22.56,7.82-26.44,17.93,3.21-1.25,6.73-1.98,10.49-1.98h141.61c13.81,0,23.24-7.33,27.47-17.96-3.42,1.28-7.25,2.02-11.52,2.02h-141.61Z"/>
  <path class="cls-5" d="M942.24,545.86c-19.8,0-31.2-14.15-31.2-31.7,0-4.78.76-9.14,2.2-13-11.66,4.34-18.14,14.87-18.14,28.95,0,17.55,11.4,31.7,31.2,31.7h146.41c34.88,0,62.84-15.12,80.16-37.22-16.69,13.1-38.58,21.28-64.21,21.28h-146.41Z"/>
  <path class="cls-5" d="M1118.66,454.73c0-15.85-12.01-25.47-30.61-27.17l-86.41-3.39c-60-1.7-101.4-39.06-101.4-90,0-19.19,6.79-37.99,18.88-53.44-21.95,17.23-34.83,42.93-34.83,69.39,0,50.94,41.4,88.3,101.4,90l86.41,3.39c18.6,1.7,30.61,11.32,30.61,27.17,0,3.65-.66,7.1-1.85,10.28,10.9-4.17,17.8-14.22,17.8-26.22Z"/>
  <path class="cls-5" d="M1249.43,517.56V168.87c0-3.58.58-6.84,1.64-9.79-10.41,4.33-17.59,13.07-17.59,25.73v348.68c0,18.11,15.6,28.3,34.2,28.3,15.25,0,28.87-6.86,33.29-19.31-5.17,2.2-11.12,3.37-17.35,3.37-18.6,0-34.2-10.19-34.2-28.3Z"/>
  <path class="cls-5" d="M1420.77,371l65.93-57.69c4.59-3.88,7.61-7.21,9.6-10.39l-76.46,66.9.93,1.18Z"/>
  <path class="cls-5" d="M1458.85,527.18l-88.21-113.21-52.21,45.85v1.94l36.26-31.85,88.21,113.21c7.8,10.76,17.4,18.68,36,18.68,16.91,0,27.17-7.3,30.84-18.34-4.21,1.54-9.16,2.4-14.9,2.4-18.6,0-28.2-7.92-36-18.68Z"/>
  <path class="cls-5" d="M1646.88,234.06h26.41c12.46,0,23.12-7.72,27.39-18.23-3.52,1.46-7.39,2.28-11.45,2.28h-26.4c-16.8,0-29.4-13.02-29.4-28.3v-20.95c0-3.72.76-7.34,2.13-10.69-10.83,4.45-18.08,15.05-18.08,26.63v20.95c0,15.28,12.6,28.3,29.4,28.3Z"/>
  <path class="cls-5" d="M1643.02,306.99h-34.8c-19.2,0-30-11.89-30-30.57,0-4.69.68-8.95,2.01-12.71-11.59,4.05-17.95,14.35-17.95,28.65,0,18.68,10.81,30.57,30,30.57h34.8v158.96h15.94v-174.91Z"/>
  <path class="cls-5" d="M1608.22,541.9c-19.2,0-30-11.32-30-30,0-4.42.69-8.47,1.99-12.06-11.33,4.09-17.93,14.24-17.93,28.01,0,18.68,10.81,30,30,30h141.01c15.91,0,25.27-6.52,28.87-17.8-3.7,1.2-7.99,1.85-12.93,1.85h-141.01Z"/>
  <path class="cls-5" d="M1887.81,205.1h-37.8c-19.2,0-30-11.88-30-30.56,0-4.51.64-8.58,1.87-12.18-11.51,3.92-17.82,13.87-17.82,28.12,0,18.68,10.81,30.56,30.01,30.56h37.8v260.85h15.94V205.1Z"/>
  <path class="cls-5" d="M1850.01,541.9c-19.2,0-30-11.32-30-30,0-4.42.69-8.47,1.99-12.06-11.33,4.09-17.93,14.24-17.93,28.01,0,18.68,10.81,30,30.01,30h141.01c15.91,0,25.27-6.51,28.87-17.8-3.7,1.2-7.99,1.85-12.93,1.85h-141.01Z"/>
  <path class="cls-5" d="M2106.2,205.1h-37.8c-19.2,0-30-11.88-30-30.56,0-4.51.64-8.58,1.87-12.18-11.51,3.92-17.82,13.87-17.82,28.12,0,18.68,10.81,30.56,30.01,30.56h37.8v260.85h15.94V205.1Z"/>
  <path class="cls-5" d="M2068.4,541.9c-19.2,0-30-11.32-30-30,0-4.42.69-8.47,1.99-12.06-11.33,4.09-17.93,14.24-17.93,28.01,0,18.68,10.81,30,30.01,30h141.01c15.91,0,25.27-6.52,28.87-17.8-3.7,1.2-7.99,1.85-12.93,1.85h-141.01Z"/>
  <path class="cls-5" d="M2463.2,303.59h-87.01c-13.11,0-25.19,8.68-30.36,19.5,4.43-2.22,9.34-3.55,14.41-3.55h87.01c16.2,0,31.2,15.29,31.2,30.57v16.88h15.94v-32.83c0-15.29-15-30.57-31.2-30.57Z"/>
  <path class="cls-5" d="M2343.19,423.03v15.95h147.87c18.56,0,37.66-12.04,48.18-27.15-9.6,6.81-21.01,11.21-32.23,11.21h-163.81Z"/>
  <path class="cls-5" d="M2382.8,545.29c-64.81,0-108.61-41.32-108.61-97.92v-105.85c0-22.73,7.63-43.6,20.85-60.28-22.87,18.14-36.79,45.49-36.79,76.22v105.85c0,56.6,43.8,97.92,108.61,97.92h122.41c14.99,0,26.19-7.15,30.75-18.72-4.34,1.79-9.3,2.78-14.8,2.78h-122.41Z"/>
  <path class="cls-5" d="M2773.99,308.12c-21,0-29.4,4.53-39.61,14.15l-40.2,38.49v.68l24.26-23.23c10.2-9.62,18.6-14.15,39.61-14.15h51c15.71,0,25.04-6.66,28.74-17.83-3.67,1.22-7.91,1.89-12.8,1.89h-51Z"/>
  <path class="cls-5" d="M2696.99,283.18c-.95.86-1.89,1.74-2.81,2.63v.24l2.81-2.86Z"/>
  <path class="cls-5" d="M2625.17,517.56v-247.36c0-3.53.52-6.69,1.44-9.52-10.3,3.94-17.38,12.13-17.38,25.47v247.36c0,18.11,15.6,28.3,34.2,28.3,15.25,0,28.87-6.86,33.29-19.31-5.17,2.2-11.12,3.37-17.35,3.37-18.6,0-34.2-10.19-34.2-28.3Z"/>
  <path class="cls-4" d="M1073.31,498.98c13.4,0,23.57-7.39,27.55-18.03-3.49,1.34-7.38,2.08-11.61,2.08h-147.01c-14.73,0-24.81,6.9-29,18.13,3.81-1.42,8.18-2.18,13.06-2.18h147.01Z"/>
  <path class="cls-4" d="M1089.85,363.03l-87.6-2.26c-16.8-1.7-33-9.62-33-26.04,0-3.19.64-6.31,1.77-9.24-10.62,4.15-17.71,14.32-17.71,25.19,0,16.41,16.2,24.34,33,26.04l87.6,2.26c60,1.7,98.4,46.42,98.4,90,0,20.15-6.97,39.69-19.45,55.61,22.38-17.57,35.39-43.99,35.39-71.56,0-43.58-38.4-88.3-98.41-90Z"/>
  <path class="cls-4" d="M1121.91,259.54c19.8,0,31.2,14.15,31.2,32.27,0,4.93-.88,9.58-2.54,13.73,11.93-4.48,18.48-16.04,18.48-29.68,0-18.11-11.4-32.27-31.2-32.27h-139.21c-34.49,0-62.36,15.2-79.52,37.12,16.56-13,38.29-21.18,63.58-21.18h139.21Z"/>
  <path class="cls-3" d="M1073.91,378.97l-87.6-2.26c-16.8-1.7-33-9.62-33-26.04,0-10.87,7.09-21.04,17.71-25.19,3.88-10.1,13.89-17.93,26.44-17.93h141.61c4.27,0,8.11-.74,11.52-2.02,1.65-4.16,2.54-8.8,2.54-13.73,0-18.11-11.4-32.27-31.2-32.27h-139.21c-25.29,0-47.01,8.18-63.58,21.18-12.1,15.46-18.88,34.25-18.88,53.44,0,50.94,41.4,88.3,101.4,90l86.41,3.39c18.6,1.7,30.61,11.32,30.61,27.17,0,12.01-6.9,22.05-17.8,26.22-3.98,10.63-14.15,18.03-27.55,18.03h-147.01c-4.88,0-9.24.76-13.06,2.18-1.44,3.86-2.2,8.22-2.2,13,0,17.55,11.4,31.7,31.2,31.7h146.41c25.63,0,47.52-8.18,64.21-21.28,12.48-15.92,19.45-35.46,19.45-55.61,0-43.58-38.4-88.3-98.4-90Z"/>
  <path class="cls-4" d="M1302.49,184.82v203.78c45.6-40.76,91.21-79.24,137.41-120,9-7.36,15.6-10.76,28.2-10.76,16.2,0,31.8,14.72,31.8,30.56,0,5.41-.66,9.81-3.6,14.52l6.35-5.56c11.4-9.62,13.2-15.85,13.2-24.91,0-15.85-15.6-30.56-31.8-30.56-12.6,0-19.2,3.39-28.21,10.76-46.2,40.76-91.81,79.24-137.41,120v-203.78c0-18.68-15-28.86-34.8-28.86-15.04,0-28.1,6.66-32.56,19.08,4.95-2.06,10.62-3.13,16.61-3.13,19.81,0,34.8,10.18,34.8,28.86Z"/>
  <path class="cls-4" d="M1420.77,371l-16.87,14.76,99.6,126.79c4.2,6.79,7.8,14.15,7.8,20.94,0,3.57-.54,6.9-1.56,9.96,11.65-4.25,17.5-13.85,17.5-25.91,0-6.79-3.6-14.15-7.8-20.94l-98.67-125.61Z"/>
  <path class="cls-4" d="M1302.49,533.5c0,3.26-.54,6.25-1.51,8.99,10.27-4.37,17.46-12.89,17.46-24.93v-55.79l-15.94,14v57.74Z"/>
  <path class="cls-3" d="M1503.5,512.56l-99.6-126.79,16.87-14.76-.93-1.18,76.46-66.9c2.94-4.71,3.6-9.11,3.6-14.52,0-15.85-15.6-30.56-31.8-30.56-12.6,0-19.2,3.39-28.2,10.76-46.2,40.76-91.81,79.24-137.41,120v-203.78c0-18.68-15-28.86-34.8-28.86-5.99,0-11.67,1.07-16.61,3.13-1.06,2.94-1.64,6.21-1.64,9.79v348.68c0,18.11,15.6,28.3,34.2,28.3,6.23,0,12.17-1.17,17.35-3.37.97-2.73,1.51-5.73,1.51-8.99v-57.74l15.94-14v-1.94l52.21-45.85,88.21,113.21c7.8,10.76,17.4,18.68,36,18.68,5.73,0,10.68-.86,14.9-2.4,1.02-3.06,1.56-6.4,1.56-9.96,0-6.79-3.6-14.15-7.8-20.94Z"/>
  <path class="cls-4" d="M1673.28,155.95c16.2,0,29.4,13.59,29.4,28.86v20.95c0,3.52-.73,6.92-2.01,10.07,10.54-4.38,17.95-14.56,17.95-26.02v-20.95c0-15.28-13.2-28.86-29.4-28.86h-26.4c-12.71,0-23,7.78-27.27,18.17,3.45-1.42,7.26-2.23,11.32-2.23h26.41Z"/>
  <path class="cls-4" d="M1627.08,497.84v-15.95h-18.86c-14.06,0-24,6.8-28.02,17.93,3.58-1.29,7.61-1.99,12.07-1.99h34.8Z"/>
  <path class="cls-4" d="M1749.23,481.9h-37.21v-236.04h-103.81c-14.37,0-24.04,6.67-27.99,17.86,3.54-1.24,7.56-1.91,12.05-1.91h103.81v236.04h37.21c19.2,0,30.6,11.88,30.6,30,0,4.52-.58,8.6-1.73,12.21,12.03-3.91,17.67-13.87,17.67-28.15,0-18.11-11.4-30-30.6-30Z"/>
  <path class="cls-3" d="M1633.42,189.82c0,15.28,12.6,28.3,29.4,28.3h26.4c4.06,0,7.93-.82,11.45-2.28,1.28-3.15,2.01-6.55,2.01-10.07v-20.95c0-15.28-13.2-28.86-29.4-28.86h-26.41c-4.06,0-7.87.81-11.32,2.23-1.37,3.35-2.13,6.97-2.13,10.69v20.95Z"/>
  <path class="cls-3" d="M1733.28,497.84h-37.21v-236.04h-103.81c-4.49,0-8.51.68-12.05,1.91-1.33,3.75-2.01,8.02-2.01,12.71,0,18.68,10.81,30.57,30,30.57h34.8v174.91h-15.94v15.95h-34.8c-4.46,0-8.5.7-12.07,1.99-1.3,3.6-1.99,7.64-1.99,12.06,0,18.68,10.81,30,30,30h141.01c4.94,0,9.23-.65,12.93-1.85,1.15-3.6,1.73-7.69,1.73-12.21,0-18.11-11.4-30-30.6-30Z"/>
  <path class="cls-4" d="M1871.86,497.84v-15.95h-21.86c-14.06,0-24,6.8-28.02,17.93,3.57-1.29,7.61-1.99,12.07-1.99h37.8Z"/>
  <path class="cls-4" d="M1991.02,481.9h-34.2V144.54h-106.81c-14.56,0-24.28,6.52-28.13,17.82,3.58-1.22,7.64-1.88,12.19-1.88h106.81v337.36h34.2c19.2,0,30.6,11.88,30.6,30,0,4.52-.58,8.6-1.73,12.21,12.03-3.91,17.67-13.87,17.67-28.15,0-18.11-11.4-30-30.6-30Z"/>
  <path class="cls-3" d="M1975.07,497.84h-34.2V160.48h-106.81c-4.55,0-8.61.66-12.19,1.88-1.23,3.6-1.87,7.67-1.87,12.18,0,18.68,10.81,30.56,30,30.56h37.8v276.8h-15.94v15.95h-37.8c-4.46,0-8.5.7-12.07,1.99-1.3,3.6-1.99,7.64-1.99,12.06,0,18.68,10.81,30,30,30h141.01c4.94,0,9.23-.65,12.93-1.85,1.15-3.6,1.73-7.69,1.73-12.21,0-18.11-11.4-30-30.6-30Z"/>
  <path class="cls-4" d="M2209.41,481.9h-34.2V144.54h-106.81c-14.56,0-24.28,6.52-28.13,17.82,3.58-1.22,7.64-1.88,12.19-1.88h106.81v337.36h34.2c19.2,0,30.6,11.88,30.6,30,0,4.52-.58,8.6-1.73,12.21,12.03-3.91,17.67-13.87,17.67-28.15,0-18.11-11.4-30-30.6-30Z"/>
  <path class="cls-4" d="M2090.25,497.84v-15.95h-21.86c-14.06,0-24,6.8-28.02,17.93,3.58-1.29,7.61-1.99,12.07-1.99h37.8Z"/>
  <path class="cls-3" d="M2193.46,497.84h-34.2V160.48h-106.81c-4.55,0-8.61.66-12.19,1.88-1.23,3.6-1.87,7.67-1.87,12.18,0,18.68,10.81,30.56,30,30.56h37.8v276.8h-15.94v15.95h-37.8c-4.46,0-8.5.7-12.07,1.99-1.3,3.6-1.99,7.64-1.99,12.06,0,18.68,10.81,30,30,30h141.01c4.94,0,9.23-.65,12.93-1.85,1.15-3.6,1.73-7.69,1.73-12.21,0-18.11-11.4-30-30.6-30Z"/>
  <path class="cls-4" d="M2458.4,242.46h-79.2c-35.52,0-65.45,15.18-84.17,38.78,18-14.27,41.53-22.84,68.22-22.84h79.2c58.2,0,105.01,44.15,105.01,99.06v31.13c0,7.79-3.1,15.87-8.23,23.23,14.02-9.95,24.17-25.06,24.17-39.17v-31.13c0-54.91-46.81-99.06-105.01-99.06Z"/>
  <path class="cls-4" d="M2343.19,334.16c0-3.77.96-7.54,2.65-11.07-10.75,5.4-18.59,16.19-18.59,27.02v32.83h151.22v-15.94h-135.27v-32.83Z"/>
  <path class="cls-4" d="M2327.24,470.67c0,16.41,18,28.3,34.21,28.3h127.81c19.8,0,33,12.45,33,31.13,0,4.54-.79,8.7-2.26,12.41,11.29-4.65,18.2-14.86,18.2-28.35,0-18.68-13.2-31.13-33-31.13h-127.81c-16.21,0-34.21-11.89-34.21-28.3v-15.75h-15.95v31.7Z"/>
  <path class="cls-3" d="M2547.46,357.46c0-54.91-46.81-99.06-105.01-99.06h-79.2c-26.69,0-50.22,8.57-68.22,22.84-13.22,16.67-20.85,37.55-20.85,60.28v105.85c0,56.6,43.8,97.92,108.61,97.92h122.41c5.5,0,10.46-.99,14.8-2.78,1.46-3.71,2.26-7.87,2.26-12.41,0-18.68-13.2-31.13-33-31.13h-127.81c-16.21,0-34.21-11.89-34.21-28.3v-31.7h15.95v-15.95h163.81c11.22,0,22.63-4.39,32.23-11.21,5.12-7.36,8.23-15.44,8.23-23.23v-31.13ZM2494.4,366.99h-15.94v15.94h-151.22v-32.83c0-10.83,7.84-21.62,18.59-27.02,5.16-10.82,17.25-19.5,30.36-19.5h87.01c16.2,0,31.2,15.29,31.2,30.57v32.83Z"/>
  <path class="cls-4" d="M2855.59,277.55c0-17.55-9.6-31.7-30.6-31.7h-58.8c-25.8,0-43.2,11.32-57,24.91l-12.19,12.42c13.2-11.96,29.73-21.38,53.25-21.38h58.8c21,0,30.6,14.15,30.6,31.7,0,4.7-.61,8.97-1.86,12.73,12.12-4.03,17.8-14.34,17.8-28.67Z"/>
  <path class="cls-4" d="M2678.23,286.14v15.85l15-15.28c.31-.3.63-.6.94-.9v-15.61c0-19.81-16.2-28.3-34.8-28.3-15.28,0-28.52,5.75-32.76,18.78,5-1.91,10.74-2.84,16.82-2.84,18.6,0,34.8,8.49,34.8,28.3Z"/>
  <path class="cls-4" d="M2678.23,533.5c0,3.26-.54,6.25-1.51,8.99,10.27-4.37,17.46-12.89,17.46-24.93v-156.11l-15.95,15.27v156.79Z"/>
  <path class="cls-3" d="M2809.05,261.8h-58.8c-23.53,0-40.05,9.42-53.25,21.38l-2.81,2.86v-.24c-.31.3-.63.6-.94.9l-15,15.28v-15.85c0-19.81-16.2-28.3-34.8-28.3-6.08,0-11.82.93-16.82,2.84-.92,2.83-1.44,5.99-1.44,9.52v247.36c0,18.11,15.6,28.3,34.2,28.3,6.23,0,12.17-1.17,17.35-3.37.97-2.73,1.51-5.73,1.51-8.99v-156.79l15.95-15.27v-.68l40.2-38.49c10.21-9.62,18.6-14.15,39.61-14.15h51c4.88,0,9.13-.67,12.8-1.89,1.25-3.76,1.86-8.03,1.86-12.73,0-17.55-9.6-31.7-30.6-31.7Z"/>
  <g>
    <path class="cls-1" d="M526.86,645.54c1.73,0,3.4-.25,4.98-.69-8.87-3.13-16.09-9.91-20.01-18.59-.85-1.59-1.55-3.3-2.09-5.14-.74,1.96-1.16,4.08-1.16,6.3,0,10.02,8.18,18.13,18.27,18.13Z"/>
    <path class="cls-1" d="M715.1,459.41v-107.79c0-15.09-16.11-30.73-31.02-30.73h-47.15c-13.71,0-22.06,4.47-31.62,12.85l-25.62,22.04-2.5,2.15v76.63l35.22,26.81c7.75,6.14,16.11,11.72,29.82,11.72h57.88c4.34,0,8.58-1.07,12.47-2.9.4-.86.77-1.74,1.08-2.63.92-2.64,1.43-5.39,1.43-8.15Z"/>
    <path class="cls-1" d="M542.9,629.62c.71,0,1.42-.05,2.11-.13.08-.68.13-1.38.13-2.09,0-.35-.03-.7-.05-1.05-.54-9.42-8.31-16.91-17.9-17.07-.11,0-.21-.02-.32-.02-.71,0-1.41.04-2.1.12-.08.69-.14,1.38-.14,2.09,0,10.02,8.18,18.13,18.27,18.13Z"/>
    <path class="cls-1" d="M430.22,273.55c.59-1.78.92-3.67.92-5.65,0-.35-.03-.7-.05-1.05-.54-9.42-8.31-16.91-17.9-17.07-.11,0-.21-.02-.32-.02-1.37,0-2.7.15-3.97.43,10.23,3.88,18.18,12.53,21.33,23.35Z"/>
    <path class="cls-1" d="M415.05,282.77c-.54-9.42-8.31-16.91-17.9-17.07-.11,0-.21-.02-.32-.02-.71,0-1.42.05-2.11.13-.08.68-.12,1.38-.12,2.09,0,2.88.69,5.59,1.9,8.01,2.98,5.99,9.18,10.12,16.37,10.12.71,0,1.41-.05,2.1-.13.08-.69.13-1.38.13-2.09,0-.35-.03-.7-.05-1.05Z"/>
    <path class="cls-5" d="M396.5,259.89c-.91,1.82-1.52,3.82-1.77,5.92.69-.08,1.39-.13,2.11-.13.11,0,.21.01.32.02,9.59.16,17.36,7.65,17.9,17.07.02.35.05.69.05,1.05,0,.71-.05,1.4-.13,2.09,7.17-.82,13.07-5.75,15.25-12.35-3.14-10.82-11.1-19.47-21.33-23.35-5.45,1.21-9.98,4.84-12.4,9.69Z"/>
    <path class="cls-5" d="M377.96,429.36v-160.68c0-.14.04-.25.04-.38,0-.14-.04-.26-.04-.4,0-5.95,1.43-11.55,3.92-16.49-11.79,5.76-19.96,18.09-19.96,32.4,0,.14.04.26.04.4,0,.14-.04.24-.04.38v161.83l16.04-13.53v-3.52Z"/>
    <path class="cls-5" d="M379.16,517.22v-14.52l-22.66,18.43c-11.93,10.61-30.44,16.76-47.15,16.76h-45.93c-63.23,0-104.41-42.45-104.41-97.74v-171.47c0-3.26.47-6.2,1.34-8.85-10.25,4.02-17.37,12.01-17.37,24.77v171.47c0,55.29,41.17,97.74,104.41,97.74h45.93c16.71,0,35.22-6.15,47.15-16.76l22.66-18.43v14.52c0,15.09,17.31,24.58,34.6,24.58,15.14,0,28.27-6.74,32.55-18.97-4.92,2.01-10.56,3.06-16.51,3.06-17.29,0-34.6-9.49-34.6-24.58Z"/>
    <path class="cls-5" d="M527.17,609.28c9.59.16,17.36,7.65,17.9,17.07.02.35.05.69.05,1.05,0,.71-.05,1.4-.13,2.09,2.98-.34,5.75-1.38,8.12-2.97,4.85-3.26,8.05-8.77,8.05-15.03,0-.35-.03-.7-.05-1.05-.54-9.42-8.31-16.91-17.9-17.07-.11,0-.21-.02-.32-.02-6.15,0-11.57,3.02-14.88,7.64-1.74,2.43-2.89,5.29-3.25,8.4.69-.08,1.39-.12,2.1-.12.11,0,.21.01.32.02Z"/>
    <path class="cls-5" d="M531.84,644.84c-1.58.45-3.25.69-4.98.69-10.09,0-18.27-8.12-18.27-18.13,0-2.22.42-4.33,1.16-6.3-.74-2.53-1.16-5.31-1.16-8.38v-342.93c0-3.42.48-6.49,1.37-9.24-10.3,3.87-17.4,11.95-17.4,25.16v342.93c0,5.3,1.21,9.75,3.24,13.52,5.44,12.08,17.26,20.5,31.06,20.5s24.84-7.82,30.52-19.22c-4.4,2.12-9.3,3.31-14.49,3.31-3.88,0-7.59-.69-11.05-1.91Z"/>
    <path class="cls-5" d="M648.79,531.74c-20.42,0-40.84-8.09-53.06-16.08-.62-.41-1.24-.82-1.82-1.22l-16.71-11.73v27.18l.67.47c.58.41,1.2.81,1.82,1.22,12.21,8,32.64,16.08,53.06,16.08h47.15c37.16,0,66.67-14.3,84.71-37.41-17.61,13.57-41.03,21.49-68.68,21.49h-47.15Z"/>
    <path class="cls-5" d="M700.11,304.98h-47.15c-13.71,0-22.06,4.47-31.62,12.85l-25.62,22.04-18.53,15.94v2.12l2.5-2.15,25.62-22.04c9.55-8.38,17.91-12.85,31.62-12.85h47.15c14.91,0,31.02,15.64,31.02,30.73v107.79c0,2.76-.51,5.51-1.43,8.15-.31.89-.68,1.76-1.08,2.63,7.92-3.73,14.38-10.66,17.12-18.54.92-2.64,1.43-5.39,1.43-8.15v-107.79c0-15.09-16.11-30.73-31.02-30.73Z"/>
    <path class="cls-4" d="M531.84,644.84c1.89-.53,3.66-1.34,5.24-2.41,4.31-2.89,7.3-7.56,7.92-12.95-.69.08-1.39.13-2.11.13-10.09,0-18.27-8.12-18.27-18.13,0-.71.06-1.41.14-2.09-5.27.6-9.86,3.43-12.79,7.52-.92,1.28-1.67,2.7-2.23,4.2.54,1.84,1.23,3.56,2.09,5.14,3.91,8.68,11.13,15.46,20.01,18.59Z"/>
    <path class="cls-4" d="M695.94,245.77h-40.57c-18.51,0-40.57,8.38-56.68,21.78-6.56,4.47-16.11,12.29-21.49,18.44v-16.2c0-19.55-14.91-27.93-34.59-27.93-5.29,0-10.31.71-14.81,2.14-8.51,2.7-15.11,8.07-17.84,16.55.59-.22,1.19-.44,1.8-.63,4.5-1.43,9.53-2.14,14.81-2.14,19.69,0,34.59,8.38,34.59,27.93v16.2c5.38-6.15,14.93-13.97,21.49-18.44,16.11-13.4,38.17-21.78,56.68-21.78h40.57c61.44,0,104.4,43.57,104.4,97.74v91.04c0,21.59-6.18,41-17.38,56.7-.74,1.04-1.52,2.07-2.31,3.08,7.09-5.46,13.24-11.84,18.35-18.99,11.2-15.7,17.38-35.11,17.38-56.7v-91.04c0-54.17-42.97-97.74-104.4-97.74Z"/>
    <path class="cls-4" d="M642.23,473.09c-13.71,0-22.07-5.58-29.82-11.72l-35.22-26.81v-76.63l-16.04,13.79v78.75l35.22,26.81c7.75,6.14,16.11,11.72,29.82,11.72h57.88c12.16,0,23.61-8.28,28.51-18.82-3.89,1.83-8.14,2.9-12.47,2.9h-57.88Z"/>
    <path class="cls-4" d="M561.16,599.12v29.53c0,4.53-.94,8.43-2.5,11.85-.04.1-.07.2-.1.3-.06.18-.12.36-.19.54,0,.02-.02.03-.03.05-.3.7-.62,1.39-.96,2.07,7.59-3.65,13.66-10.06,17-17.99,0-.02.02-.03.03-.05.07-.17.13-.36.19-.54.03-.1.07-.2.1-.3,1.56-3.41,2.5-7.31,2.5-11.85v-82.86l-16.04-11.26v80.5Z"/>
    <path class="cls-3" d="M784.31,450.47v-91.04c0-54.17-42.97-97.74-104.4-97.74h-40.57c-18.51,0-40.57,8.38-56.68,21.78-6.56,4.47-16.11,12.29-21.49,18.44v-16.2c0-19.55-14.91-27.93-34.59-27.93-5.29,0-10.31.71-14.81,2.14-.61.19-1.21.41-1.8.63-.88,2.75-1.37,5.82-1.37,9.24v342.93c0,3.07.42,5.84,1.16,8.38.56-1.5,1.31-2.91,2.23-4.2,2.93-4.09,7.51-6.92,12.79-7.52.36-3.11,1.51-5.97,3.25-8.4,3.31-4.62,8.74-7.64,14.88-7.64.11,0,.21.01.32.02,9.59.16,17.36,7.65,17.9,17.07.02.35.05.69.05,1.05v-92.87l16.04,11.26v-27.18l16.71,11.73c.58.41,1.2.81,1.82,1.22,12.21,8,32.64,16.08,53.06,16.08h47.15c27.65,0,51.07-7.92,68.68-21.49.79-1.01,1.56-2.03,2.31-3.08,11.2-15.7,17.38-35.11,17.38-56.7ZM731.13,443.5c0,2.76-.51,5.51-1.43,8.15-2.74,7.88-9.2,14.82-17.12,18.54-4.9,10.54-16.35,18.82-28.51,18.82h-57.88c-13.71,0-22.07-5.58-29.82-11.72l-35.22-26.81v-78.75l16.04-13.79v-2.12l18.53-15.94,25.62-22.04c9.55-8.38,17.91-12.85,31.62-12.85h47.15c14.91,0,31.02,15.64,31.02,30.73v107.79Z"/>
    <path class="cls-2" d="M558.37,641.32c.07-.17.13-.36.19-.54.03-.1.07-.2.1-.3,1.56-3.41,2.5-7.31,2.5-11.85v-17.16c0,6.26-3.19,11.77-8.05,15.03-2.37,1.59-5.13,2.63-8.12,2.97-.62,5.38-3.61,10.05-7.92,12.95-1.59,1.07-3.35,1.88-5.24,2.41,3.47,1.22,7.18,1.91,11.05,1.91,5.18,0,10.09-1.19,14.49-3.31.34-.68.66-1.37.96-2.07,0-.02.02-.03.03-.05Z"/>
    <path class="cls-4" d="M446.6,258.8c-3.17-12.43-12.64-22.21-24.7-25.53-2.88-.79-5.9-1.25-9.02-1.25-4.85,0-9.47,1.02-13.67,2.86-7.48,3.27-13.59,9.16-17.32,16.53.43-.21.84-.43,1.28-.62,4.2-1.84,8.82-2.86,13.67-2.86,3.13,0,6.14.46,9.02,1.25,1.04.28,2.04.63,3.04,1.01,1.28-.28,2.61-.43,3.97-.43.11,0,.21.01.32.02,9.59.16,17.36,7.65,17.9,17.07.02.35.05.69.05,1.05,0,1.97-.33,3.87-.92,5.65.11.39.24.77.34,1.17.74,2.91,1.18,5.95,1.18,9.1,0,.13-.04.26-.04.39,0,.14.04.25.04.39v245.19c0,2.24-.24,4.35-.71,6.34-.21.9-.47,1.77-.76,2.61,8.45-3.45,14.76-9.75,16.8-18.53.46-1.99.71-4.1.71-6.34v-245.19c0-.14-.04-.25-.04-.39,0-.13.04-.26.04-.39,0-3.15-.44-6.19-1.18-9.1Z"/>
    <path class="cls-4" d="M396.5,275.91c-1.2-2.42-1.9-5.13-1.9-8.01,0-.71.04-1.4.12-2.09-6.28.72-11.58,4.6-14.26,9.99-1.2,2.42-1.9,5.13-1.9,8.01s.69,5.59,1.9,8.01c2.98,5.99,9.18,10.12,16.37,10.12,9.38,0,17.1-7.02,18.14-16.05-.69.08-1.39.13-2.1.13-7.19,0-13.39-4.13-16.37-10.12Z"/>
    <path class="cls-4" d="M178.78,256.66c19.69,0,34,8.94,34,28.48v181.52c0,15.08,14.93,29.04,31.04,29.04h46.53c13.73,0,26.26-9.49,35.19-16.2l36.39-30.72v-2.38l-20.36,17.18c-8.93,6.7-21.46,16.2-35.19,16.2h-46.53c-16.11,0-31.04-13.96-31.04-29.04v-181.52c0-19.55-14.31-28.48-34-28.48-5.9,0-11.58.81-16.6,2.49-8.51,2.86-15.15,8.25-17.86,16.59.6-.23,1.2-.46,1.82-.67,5.02-1.69,10.7-2.49,16.6-2.49Z"/>
    <path class="cls-3" d="M431.74,529.78v-245.19c0-.14-.04-.25-.04-.39,0-.13.04-.26.04-.39,0-3.15-.44-6.19-1.18-9.1-.1-.39-.23-.78-.34-1.17-2.18,6.61-8.08,11.54-15.25,12.35-1.04,9.03-8.76,16.05-18.14,16.05-7.19,0-13.39-4.13-16.37-10.12-1.2-2.42-1.9-5.13-1.9-8.01s.69-5.59,1.9-8.01c2.69-5.4,7.99-9.27,14.26-9.99.25-2.11.86-4.1,1.77-5.92,2.42-4.85,6.94-8.49,12.4-9.69-.99-.38-2-.73-3.04-1.01-2.88-.79-5.9-1.25-9.02-1.25-4.85,0-9.47,1.02-13.67,2.86-.43.19-.85.41-1.28.62-2.49,4.94-3.92,10.54-3.92,16.49,0,.14.04.26.04.4,0,.14-.04.24-.04.38v164.21l-16.04,13.53v2.38l-36.39,30.72c-8.93,6.7-21.46,16.2-35.19,16.2h-46.53c-16.11,0-31.04-13.96-31.04-29.04v-181.52c0-19.55-14.31-28.48-34-28.48-5.9,0-11.58.81-16.6,2.49-.62.21-1.22.43-1.82.67-.86,2.65-1.34,5.59-1.34,8.85v171.47c0,55.29,41.17,97.74,104.41,97.74h45.93c16.71,0,35.22-6.15,47.15-16.76l22.66-18.43v14.52c0,15.09,17.31,24.58,34.6,24.58,5.96,0,11.6-1.05,16.51-3.06.3-.85.55-1.72.76-2.61.46-1.99.71-4.1.71-6.34Z"/>
  </g>
</svg>