<?xml version="1.0" encoding="UTF-8"?>
<svg id="Layer_1" xmlns="http://www.w3.org/2000/svg" version="1.1" viewBox="0 0 49.6 49.6">
  <!-- Generator: Adobe Illustrator 29.6.1, SVG Export Plug-In . SVG Version: 2.1.1 Build 9)  -->
  <defs>
    <style>
      .st0 {
        fill: #180057;
      }
    </style>
  </defs>
  <path class="st0" d="M24.7,30.7v-6.1s-.1-.6-.1-.7c-.4-1.4-2-1.9-3.3-1.5,1.5-1.5,4.4-.8,4.6,1.5v6.2c0,0,0,.1,0,.1,0,0-.7.5-.8.5,0,0-.1,0-.2,0h0Z"/>
  <path class="st0" d="M26.7,22.5s0-.1.1-.2c0,0,.7-.5.8-.5h2.6v8.3c-.2.1-.7.5-1,.6,0,0-.2,0-.2,0v-8.1h0c0,0-2.2,0-2.2,0Z"/>
  <path class="st0" d="M17.2,21.8l-2.4,8.3-1,.6,2.4-8.1s0,0-.1-.1c-.2-.1-1.4,0-1.8,0s-.5.1-.5,0c.1,0,.8-.6.9-.6h2.6Z"/>
  <path class="st0" d="M44.6,22.5c.6.5,1,1.3,1.2,2,0,.3.3,1.7.2,1.9,0,0-1,.6-1.1.6,0-1.2-.2-2.5-1-3.5-1-1.2-2.4-1.5-3.9-1.4,0,0-1,.3-.8,0,.2,0,.4-.2.6-.3,1.5-.7,3.6-.6,4.9.6h0Z"/>
  <path class="st0" d="M35.5,24.2v3.5c0,.1.2.5.3.5h1.1c0,0,0,.1,0,.2,0,.2,0,1.6,0,1.7-.3.2-.7.5-1.1.6v-1.7h0c0,0-1.1,0-1.1,0-.2,0-.3-.5-.4-.7,0-.9,0-2.7,0-3.7,0-.1,0-.2,0-.3h1.1Z"/>
  <path class="st0" d="M12.3,28.2l-1.1-5.6h-2.5c0-.1.9-.7,1-.7.3,0,2.2,0,2.5,0,0,0,.1,0,.2,0l.7,3.5c-.2.8-.3,1.5-.5,2.3,0,.2,0,.5-.2.6h0Z"/>
  <path class="st0" d="M7.2,21.8l.7,3.5-.6,2.8v-.2c-.1,0-1.2-5.4-1.2-5.4,0,0-.2-.1-.3-.1-.5,0-1.2,0-1.7,0s-.3.1-.5,0l1-.6h2.6Z"/>
  <path class="st0" d="M36,24.1v-1.4h-1.5s0,0-.1,0v-2.5h0c0,0-2.3,0-2.3,0,.2-.2.8-.6,1-.6.7-.1,1.6.1,2.3,0,0,0,.2,0,.2.1v2.4h0c0,0,1.4,0,1.4,0h0v1.4c0,.2-.9.7-1.1.7h0Z"/>
  <path class="st0" d="M19.6,25.7c0-.7.5-1.3,1.3-1.3,0,.3-.1.5-.1.7-.1,1.6.1,3.4,0,5,0,.3-.9.7-1.1.7v-5h0Z"/>
  <path class="st0" d="M17.4,19.5s-.1,0,0-.1c.1,0,.9-.6.9-.6h2.5v3.6l-1,.8h-.1v-3.6h0c0,0-2.2,0-2.2,0Z"/>
  <path class="st0" d="M9.8,25.4c.1.7.4,1.4.4,2.1-.2.8-.3,1.6-.5,2.4,0,.1,0,.1-.2.2,0,0-.9.5-1,.5.4-1.8.8-3.5,1.1-5.2,0,0,0-.1.1,0h0Z"/>
  <path class="st0" d="M30.1,20.7l-1.1.7s0-.1,0-.1v-1.7h-2.3c.1-.2.9-.7.9-.7h2.5v1.9h0Z"/>
  <path class="st0" d="M40,27.1c.2.2.3.5.5.8.5.5,1.1.7,1.8.6.1.1-.5.4-.5.5-1.5.6-2.9-.3-2.8-1.9h1.1,0Z"/>
  <path class="st0" d="M45.2,29c-.4.5-1.1,1.1-1.7,1.2l.7-.7c.1-.2.6-.6.5-.9,0,0-1.4-.7-1.6-.8,0,0,0-.1,0-.2s.9-.5,1-.5c.4,0,1.3.7,1.7.8h0c0,.2-.5.9-.7,1h0Z"/>
  <path class="st0" d="M39,25.6c0-.8.6-1.5,1.4-1.6,0,0-.5.8-.2,1,0,0,0,0,0,0h1.8c.2,0,.3.5.3.7h-3.3Z"/>
  <path class="st0" d="M30.9,22.6c.3-.3.7-.5,1-.6.1,0,0,0,0,0,0,.2,0,.4,0,.5,0,0-1.1,0-1.1,0Z"/>
</svg>